<svg width="20" height="20" viewBox="0 0 20 20" fill="none" xmlns="http://www.w3.org/2000/svg">
<path d="M17.0031 8H17.25C17.6656 8 18 7.66562 18 7.25V2.75C18 2.44687 17.8188 2.17187 17.5375 2.05625C17.2563 1.94062 16.9344 2.00625 16.7188 2.21875L15.1031 3.8375C13.7188 2.69062 11.9375 2 10 2C5.96875 2 2.63437 4.98125 2.08125 8.85937C2.00312 9.40625 2.38125 9.9125 2.92812 9.99062C3.475 10.0687 3.98125 9.6875 4.05937 9.14375C4.475 6.23437 6.97813 4 10 4C11.3875 4 12.6625 4.46875 13.6781 5.25937L12.2188 6.71875C12.0031 6.93437 11.9406 7.25625 12.0562 7.5375C12.1719 7.81875 12.4469 8 12.75 8H17.0031ZM17.9219 11.1406C18 10.5937 17.6188 10.0875 17.075 10.0094C16.5313 9.93125 16.0219 10.3125 15.9438 10.8562C15.5281 13.7625 13.025 15.9969 10.0031 15.9969C8.61563 15.9969 7.34062 15.5281 6.325 14.7375L7.78125 13.2812C7.99687 13.0656 8.05937 12.7437 7.94375 12.4625C7.82812 12.1812 7.55312 12 7.25 12H2.75C2.33437 12 2 12.3344 2 12.75V17.25C2 17.5531 2.18125 17.8281 2.4625 17.9437C2.74375 18.0594 3.06562 17.9937 3.28125 17.7812L4.9 16.1625C6.28125 17.3094 8.0625 18 10 18C14.0312 18 17.3656 15.0187 17.9188 11.1406H17.9219Z" fill="#826A6A"/>
</svg>
