<svg width="20" height="20" viewBox="0 0 20 20" fill="none" xmlns="http://www.w3.org/2000/svg">
<path fill-rule="evenodd" clip-rule="evenodd" d="M8.77769 19.1448L0.52712 15.2846C-0.175707 14.9476 -0.175707 14.4268 0.52712 14.1205L3.39954 12.7725L8.74714 15.2846C9.44996 15.6216 10.5806 15.6216 11.2529 15.2846L16.6005 12.7725L19.4729 14.1205C20.1757 14.4575 20.1757 14.9783 19.4729 15.2846L11.2223 19.1448C10.5806 19.4512 9.44996 19.4512 8.77769 19.1448Z" fill="#826A6A" fill-opacity="0.5"/>
<path fill-rule="evenodd" clip-rule="evenodd" d="M8.75095 14.3685L0.525514 10.5038C-0.175171 10.1664 -0.175171 9.64502 0.525514 9.3383L3.32826 8.01941L8.75095 10.5652C9.45164 10.9026 10.5788 10.9026 11.249 10.5652L16.6717 8.01941L19.4745 9.3383C20.1752 9.67569 20.1752 10.1971 19.4745 10.5038L11.249 14.3685C10.5484 14.7059 9.42117 14.7059 8.75095 14.3685Z" fill="#826A6A" fill-opacity="0.75"/>
<path fill-rule="evenodd" clip-rule="evenodd" d="M8.75095 9.64123L0.525514 5.83219C-0.175171 5.49966 -0.175171 4.98574 0.525514 4.68344L8.75095 0.874401C9.45164 0.541866 10.5788 0.541866 11.249 0.874401L19.4745 4.68344C20.1752 5.01597 20.1752 5.52989 19.4745 5.83219L11.249 9.64123C10.5484 9.94353 9.42117 9.94353 8.75095 9.64123Z" fill="#826A6A"/>
</svg>
