<svg width="40" height="40" viewBox="0 0 40 40" fill="none" xmlns="http://www.w3.org/2000/svg">
<path fill-rule="evenodd" clip-rule="evenodd" d="M17.5554 38.2904L1.05424 30.5701C-0.351413 29.8961 -0.351413 28.8545 1.05424 28.2418L6.79908 25.5458L17.4943 30.5701C18.8999 31.2441 21.1612 31.2441 22.5057 30.5701L33.2009 25.5458L38.9458 28.2418C40.3514 28.9158 40.3514 29.9574 38.9458 30.5701L22.4446 38.2904C21.1612 38.9032 18.8999 38.9032 17.5554 38.2904Z" fill="#212121" fill-opacity="0.5"/>
<path fill-rule="evenodd" clip-rule="evenodd" d="M17.5019 28.7372L1.05103 21.0079C-0.350343 20.3331 -0.350343 19.2903 1.05103 18.6768L6.65651 16.0391L17.5019 21.1306C18.9033 21.8054 21.1577 21.8054 22.4981 21.1306L33.3435 16.0391L38.949 18.6768C40.3503 19.3516 40.3503 20.3945 38.949 21.0079L22.4981 28.7372C21.0967 29.412 18.8423 29.412 17.5019 28.7372Z" fill="#212121" fill-opacity="0.75"/>
<path fill-rule="evenodd" clip-rule="evenodd" d="M17.5019 19.2825L1.05103 11.6644C-0.350343 10.9993 -0.350343 9.97148 1.05103 9.36687L17.5019 1.7488C18.9033 1.08373 21.1577 1.08373 22.4981 1.7488L38.949 9.36687C40.3503 10.0319 40.3503 11.0598 38.949 11.6644L22.4981 19.2825C21.0967 19.8871 18.8423 19.8871 17.5019 19.2825Z" fill="#212121"/>
</svg>
